<svg version="1.1" viewBox="0 0 1024 1024" xmlns="http://www.w3.org/2000/svg">
  <path d="m384 4.5e-11c-212.7 0-384 171.3-384 384v128 128 384h383.9 128.1 128c212.7 0 384-171.3 384-384v-128-128-384h-384-128-128z" stroke-linecap="round" stroke-width="24"/>
  <path d="m400 64c-186.1 0-336 149.9-336 336v112 112 336h335.9 112.1 112c186.1 0 336-149.9 336-336v-112-112-336h-336-112z" fill="#fff6d5" stroke-linecap="round" stroke-width="21"/>
  <path d="m393.6 167.7c-96.11 0-167.5 66.57-167.5 159.6s71.42 159.6 167.1 159.6c53.78 0 98.31-19.4 127.4-55.1l-45.85-42.32c-20.72 24.25-46.73 36.59-77.59 36.59-57.75 0-98.75-40.56-98.75-98.75s41-98.75 98.75-98.75c30.86 0 56.87 12.34 77.59 36.15l45.85-42.32c-29.1-35.27-73.62-54.67-127-54.67zm171.1 5.291v308.6h71.42v-112.4h142.8v-57.31h-142.8v-81.56h161.8v-57.31h-233.2zm106.2 369.4c-55.55 0-98.75 22.48-122.6 57.31l52.02 33.5c14.99-20.72 37.47-30.86 63.92-30.86 32.62 0 49.38 14.11 49.38 38.35 0 14.99-4.849 30.86-32.18 56.87l-119 112.4v46.29h233.2v-58.19h-132.7l70.98-67.01c43.2-40.12 51.58-67.45 51.58-97.43 0-55.99-45.85-91.26-114.6-91.26zm-423.7 5.291v308.6h159.6c81.12 0 123.4-30.86 123.4-84.2 0-38.8-21.6-64.81-55.99-76.27 25.13-13.23 40.56-37.03 40.56-67.89 0-48.05-39.68-80.23-116.8-80.23h-150.8zm70.98 53.78h70.98c34.83 0 53.78 11.9 53.78 36.15 0 24.25-18.96 36.59-53.78 36.59h-70.98v-72.74zm0 124.8h83.32c37.03 0 56.87 12.34 56.87 38.35 0 26.45-19.84 37.92-56.87 37.92h-83.32v-76.27z" stroke-width="9.37"/>
</svg>
